<mxfile host="app.diagrams.net" agent="Mozilla/5.0 (Windows NT 10.0; Win64; x64) AppleWebKit/537.36 (KHTML, like Gecko) Chrome/137.0.0.0 Safari/537.36" version="27.1.4">
  <diagram name="Aspire Graph" id="Mzkb-3E1kNFXuyC7beK5">
    <mxGraphModel dx="994" dy="755" grid="1" gridSize="10" guides="1" tooltips="1" connect="1" arrows="1" fold="1" page="1" pageScale="1" pageWidth="827" pageHeight="1169" math="0" shadow="0">
      <root>
        <mxCell id="0" />
        <mxCell id="1" parent="0" />
        <object label="api:blob" image="api-orders:latest" id="api1">
          <mxCell style="rounded=1;whiteSpace=wrap;html=1;fillColor=#dae8fc;strokeColor=#6c8ebf;direction=west;" parent="1" vertex="1">
            <mxGeometry x="40" y="180" width="120" height="60" as="geometry" />
          </mxCell>
        </object>
        <object label="queue:blob" CONNECTION_STRING="Endpoint:XYZ" id="queue1">
          <mxCell style="shape=cylinder;whiteSpace=wrap;html=1;fillColor=#fff2cc;strokeColor=#d6b656;" parent="1" vertex="1">
            <mxGeometry x="200" y="190" width="100" height="40" as="geometry" />
          </mxCell>
        </object>
        <object label="worker:interpret" AGENT_ENDPOINT="https://agent1.local" image="agent1-worker:latest" id="worker1">
          <mxCell style="rounded=0;whiteSpace=wrap;html=1;fillColor=#e1d5e7;strokeColor=#9673a6;" parent="1" vertex="1">
            <mxGeometry x="343.5" y="180" width="140" height="60" as="geometry" />
          </mxCell>
        </object>
        <object label="sink:db" DB_ENDPOINT="https://cepal.local" image="sink:latest" id="sink1">
          <mxCell style="shape=database;whiteSpace=wrap;html=1;fillColor=#d5e8d4;strokeColor=#82b366;" parent="1" vertex="1">
            <mxGeometry x="200" y="300" width="100" height="40" as="geometry" />
          </mxCell>
        </object>
        <mxCell id="arrow1" style="endArrow=block;html=1;strokeColor=#000000;" parent="1" source="api1" target="queue1" edge="1">
          <mxGeometry relative="1" as="geometry" />
        </mxCell>
        <mxCell id="arrow2" style="endArrow=block;html=1;strokeColor=#000000;" parent="1" source="queue1" target="worker1" edge="1">
          <mxGeometry relative="1" as="geometry" />
        </mxCell>
        <mxCell id="arrow3" style="endArrow=block;html=1;strokeColor=#000000;entryX=0;entryY=0.5;entryDx=0;entryDy=0;" parent="1" source="worker1" target="uAy1K2etTnsJfMtenJ4F-1" edge="1">
          <mxGeometry relative="1" as="geometry" />
        </mxCell>
        <object label="queue:interpretations" CONNECTION_STRING="Endpoint:YZA" id="uAy1K2etTnsJfMtenJ4F-1">
          <mxCell style="shape=cylinder;whiteSpace=wrap;html=1;fillColor=#fff2cc;strokeColor=#d6b656;" parent="1" vertex="1">
            <mxGeometry x="530" y="190" width="100" height="40" as="geometry" />
          </mxCell>
        </object>
        <mxCell id="uAy1K2etTnsJfMtenJ4F-2" style="endArrow=block;html=1;strokeColor=#000000;exitX=0;exitY=0.5;exitDx=0;exitDy=0;" parent="1" source="uAy1K2etTnsJfMtenJ4F-6" target="sink1" edge="1">
          <mxGeometry relative="1" as="geometry">
            <mxPoint x="670" y="330" as="sourcePoint" />
            <mxPoint x="536" y="200" as="targetPoint" />
          </mxGeometry>
        </mxCell>
        <object label="worker:grade" AGENT_ENDPOINT="https://agent2.local" image="agent2-worker:latest" id="uAy1K2etTnsJfMtenJ4F-3">
          <mxCell style="rounded=0;whiteSpace=wrap;html=1;fillColor=#e1d5e7;strokeColor=#9673a6;" parent="1" vertex="1">
            <mxGeometry x="510" y="290" width="140" height="60" as="geometry" />
          </mxCell>
        </object>
        <mxCell id="uAy1K2etTnsJfMtenJ4F-4" style="endArrow=block;html=1;strokeColor=#000000;exitX=0.5;exitY=1;exitDx=0;exitDy=0;" parent="1" source="uAy1K2etTnsJfMtenJ4F-1" target="uAy1K2etTnsJfMtenJ4F-3" edge="1">
          <mxGeometry relative="1" as="geometry">
            <mxPoint x="120" y="450" as="sourcePoint" />
          </mxGeometry>
        </mxCell>
        <mxCell id="uAy1K2etTnsJfMtenJ4F-5" style="endArrow=block;html=1;strokeColor=#000000;entryX=1;entryY=0.5;entryDx=0;entryDy=0;exitX=0;exitY=0.5;exitDx=0;exitDy=0;" parent="1" source="uAy1K2etTnsJfMtenJ4F-3" target="uAy1K2etTnsJfMtenJ4F-6" edge="1">
          <mxGeometry relative="1" as="geometry" />
        </mxCell>
        <object label="queue:grades" CONNECTION_STRING="Endpoint:ZAB" id="uAy1K2etTnsJfMtenJ4F-6">
          <mxCell style="shape=cylinder;whiteSpace=wrap;html=1;fillColor=#fff2cc;strokeColor=#d6b656;" parent="1" vertex="1">
            <mxGeometry x="364" y="300" width="100" height="40" as="geometry" />
          </mxCell>
        </object>
        <object label="watcher:blob" DB_ENDPOINT="https://cepal.local" image="watcher:latest" id="W7roT-0tQa_dnEZkSfyX-1">
          <mxCell style="shape=database;whiteSpace=wrap;html=1;fillColor=#d5e8d4;strokeColor=#82b366;" parent="1" vertex="1">
            <mxGeometry x="190" y="110" width="100" height="40" as="geometry" />
          </mxCell>
        </object>
        <mxCell id="W7roT-0tQa_dnEZkSfyX-2" style="endArrow=block;html=1;strokeColor=#000000;entryX=0.43;entryY=-0.05;entryDx=0;entryDy=0;entryPerimeter=0;exitX=0.5;exitY=1;exitDx=0;exitDy=0;" parent="1" source="W7roT-0tQa_dnEZkSfyX-1" target="queue1" edge="1">
          <mxGeometry relative="1" as="geometry">
            <mxPoint x="180" y="170" as="sourcePoint" />
            <mxPoint x="220" y="170" as="targetPoint" />
          </mxGeometry>
        </mxCell>
        <object label="queue:&lt;div&gt;interpretations-dlq&lt;/div&gt;" CONNECTION_STRING="Endpoint:YZA" id="LiATpK6p5mUAVCSsK4Km-1">
          <mxCell style="shape=cylinder;whiteSpace=wrap;html=1;fillColor=#fff2cc;strokeColor=#d6b656;" vertex="1" parent="1">
            <mxGeometry x="530" y="130" width="100" height="40" as="geometry" />
          </mxCell>
        </object>
        <object label="sink:interpr-fallback" DB_ENDPOINT="https://cepal.local" image="sink:latest" id="LiATpK6p5mUAVCSsK4Km-2">
          <mxCell style="shape=database;whiteSpace=wrap;html=1;fillColor=#d5e8d4;strokeColor=#82b366;" vertex="1" parent="1">
            <mxGeometry x="343.5" y="130" width="140" height="40" as="geometry" />
          </mxCell>
        </object>
        <mxCell id="LiATpK6p5mUAVCSsK4Km-3" style="endArrow=block;html=1;strokeColor=#000000;exitX=0;exitY=0.5;exitDx=0;exitDy=0;entryX=1;entryY=0.5;entryDx=0;entryDy=0;" edge="1" parent="1" source="LiATpK6p5mUAVCSsK4Km-1" target="LiATpK6p5mUAVCSsK4Km-2">
          <mxGeometry relative="1" as="geometry">
            <mxPoint x="534" y="100" as="sourcePoint" />
            <mxPoint x="470" y="100" as="targetPoint" />
          </mxGeometry>
        </mxCell>
        <object label="queue:&lt;div&gt;grades-dlq&lt;/div&gt;" CONNECTION_STRING="Endpoint:YZA" id="LiATpK6p5mUAVCSsK4Km-4">
          <mxCell style="shape=cylinder;whiteSpace=wrap;html=1;fillColor=#fff2cc;strokeColor=#d6b656;" vertex="1" parent="1">
            <mxGeometry x="364" y="360" width="100" height="40" as="geometry" />
          </mxCell>
        </object>
        <object label="sink:grade-fallback" DB_ENDPOINT="https://cepal.local" image="sink:latest" id="LiATpK6p5mUAVCSsK4Km-5">
          <mxCell style="shape=database;whiteSpace=wrap;html=1;fillColor=#d5e8d4;strokeColor=#82b366;" vertex="1" parent="1">
            <mxGeometry x="177.5" y="360" width="140" height="40" as="geometry" />
          </mxCell>
        </object>
        <mxCell id="LiATpK6p5mUAVCSsK4Km-6" style="endArrow=block;html=1;strokeColor=#000000;exitX=0;exitY=0.5;exitDx=0;exitDy=0;entryX=1;entryY=0.5;entryDx=0;entryDy=0;" edge="1" parent="1" source="LiATpK6p5mUAVCSsK4Km-4" target="LiATpK6p5mUAVCSsK4Km-5">
          <mxGeometry relative="1" as="geometry">
            <mxPoint x="368" y="330" as="sourcePoint" />
            <mxPoint x="304" y="330" as="targetPoint" />
          </mxGeometry>
        </mxCell>
        <mxCell id="LiATpK6p5mUAVCSsK4Km-7" value="" style="endArrow=none;dashed=1;html=1;dashPattern=1 3;strokeWidth=2;rounded=0;entryX=0.5;entryY=1;entryDx=0;entryDy=0;exitX=0.5;exitY=0;exitDx=0;exitDy=0;" edge="1" parent="1" source="LiATpK6p5mUAVCSsK4Km-4" target="uAy1K2etTnsJfMtenJ4F-6">
          <mxGeometry width="50" height="50" relative="1" as="geometry">
            <mxPoint x="390" y="490" as="sourcePoint" />
            <mxPoint x="400" y="490" as="targetPoint" />
          </mxGeometry>
        </mxCell>
        <mxCell id="LiATpK6p5mUAVCSsK4Km-8" value="" style="endArrow=none;dashed=1;html=1;dashPattern=1 3;strokeWidth=2;rounded=0;entryX=0.5;entryY=1;entryDx=0;entryDy=0;exitX=0.5;exitY=0;exitDx=0;exitDy=0;" edge="1" parent="1" source="uAy1K2etTnsJfMtenJ4F-1" target="LiATpK6p5mUAVCSsK4Km-1">
          <mxGeometry width="50" height="50" relative="1" as="geometry">
            <mxPoint x="670" y="190" as="sourcePoint" />
            <mxPoint x="720" y="140" as="targetPoint" />
          </mxGeometry>
        </mxCell>
      </root>
    </mxGraphModel>
  </diagram>
</mxfile>
